<?xml version="1.0" encoding="UTF-8" standalone="no"?>
<svg
   xmlns:dc="http://purl.org/dc/elements/1.1/"
   xmlns:cc="http://creativecommons.org/ns#"
   xmlns:rdf="http://www.w3.org/1999/02/22-rdf-syntax-ns#"
   xmlns:svg="http://www.w3.org/2000/svg"
   xmlns="http://www.w3.org/2000/svg"
   xmlns:sodipodi="http://sodipodi.sourceforge.net/DTD/sodipodi-0.dtd"
   xmlns:inkscape="http://www.inkscape.org/namespaces/inkscape"
   width="223.17"
   height="207.59"
   enable-background="new 0 0 223.17236 207.59424"
   viewBox="0 0 223.17236 207.59424"
   version="1.1"
   id="svg4641"
   sodipodi:docname="icon.svg"
   inkscape:version="0.92.1 r15371">
  <metadata
     id="metadata4647">
    <rdf:RDF>
      <cc:Work
         rdf:about="">
        <dc:format>image/svg+xml</dc:format>
        <dc:type
           rdf:resource="http://purl.org/dc/dcmitype/StillImage" />
        <dc:title></dc:title>
      </cc:Work>
    </rdf:RDF>
  </metadata>
  <defs
     id="defs4645" />
  <sodipodi:namedview
     pagecolor="#ffffff"
     bordercolor="#666666"
     borderopacity="1"
     objecttolerance="10"
     gridtolerance="10"
     guidetolerance="10"
     inkscape:pageopacity="0"
     inkscape:pageshadow="2"
     inkscape:window-width="1920"
     inkscape:window-height="1056"
     id="namedview4643"
     showgrid="false"
     inkscape:zoom="4.4029097"
     inkscape:cx="111.585"
     inkscape:cy="103.795"
     inkscape:window-x="1920"
     inkscape:window-y="24"
     inkscape:window-maximized="1"
     inkscape:current-layer="svg4641" />
  <path
     d="m120.11,0 87.468,26.181s4.0635,110.2-.49707,153.98c-35.536-10.849-97.054-35.83-97.054-35.83s-94.213,46.63-102.17,39.79-5.2456-166.29-5.2456-166.29l117.5-17.83z"
     fill="#30eefb"
     id="path4607" />
  <path
     d="m221.04 115.27c3.91 1.72 1.54 1.95 0 0z"
     fill="#65f3fa"
     id="path4609" />
  <path
     d="m205.84,178.85c0-.02-.01-.02 0,0"
     fill="#65f3fa"
     id="path4611" />
  <path
     d="m140.17 207.09"
     fill="none"
     stroke="#65f3fa"
     id="path4613" />
  <path
     d="m118.85,35.543c-1.2246,37.3-3.2754,74.542-5.4551,111.8-.16504,2.8242.94238,10 5,10 4.2812,0 4.834-7.168 5-10 2.1797-37.255 4.2305-74.496 5.4551-111.8 .09277-2.8291-.89355-10-5-10-4.24.003-4.91,7.169-5,10.003z"
     fill="#3ec3f7"
     id="path4615" />
  <path
     d="m120.72.18164c14.712,5.0405 88.983,20.008 88.597,25.959-.27246,4.1602-83.743,19.195-89.453,17.382-35.059-11.132-82.557-23.808-119.87-23.782l120.72-19.559z"
     fill="#d8fcfd"
     opacity=".65"
     id="path4617" />
  <path
     d="m112.19 142.85s94.897 30.631 94.897 37.315-88.151 26.546-88.151 26.546-86.878-14.05-109.64-23.96c-22.753-9.9 102.89-39.9 102.89-39.9z"
     fill="#3ec3f7"
     id="path4619" />
  <g
     opacity=".4"
     id="g4623">
    <path
       d="m205.64,28.137c-9.2627,2.8755-81.551,13.565-81.839,18.685-1.5537,27.631-2.5898,55.317-2.7461,82.991-.08887,15.789-.11523,31.726 1.581,47.448 .10645.98145 3.9961,23.657 8.46,15.812 6.126-10.77-1.8701-33.443-3.7119-44.724-2.376-14.574 2.0137-27.809 7.2178-41.611 8.332-22.097 27.691-8.3096 26.778,11.218-.65039,13.904-9.7705,31.887-12.565,46.042-1.8516,9.3838-4.2773,25.074 2.7393,33.364 6.2256,7.3564 35.447-10.541 41.358-13.686 26.004-13.831 18.036-39.941 17.886-66.205-.10449-18.419-.3877-36.846-1.2051-55.248-.33-7.295 1.87-28.187-3.96-34.075"
       fill="#d8fcfd"
       fill-rule="evenodd"
       id="path4621" />
  </g>
  <g
     opacity=".4"
     id="g4629">
    <path
       d="m87.514 13.689c28.326 8.1299 47.383 33.42 77.751 19.357-12.38-10.797-53.75-22.849-77.746-19.357z"
       fill="#cafcfc"
       fill-rule="evenodd"
       id="path4625" />
    <path
       d="m146.7,47.477c.01465-.4043-.26465-.80566.18359-.99561 1.3848-.41699 2.5635.98096 3.9707.45312l.05371-.65869c1.1025.19775 2.2773.46289 3.4756.5708 2.125-.38281 4.1787-.99805 6.1182-1.7671-.11621-.21484-.19727-.41895-.02441-.55957 .7666-.41113 1.9883-.4834 3.1396-.85107l.46582-.28613c.08203-.17871.03809-.40674.01074-.54639 .51758-.16162.99316-.2666 1.4404-.354l1.8213-1.3022 .89648-.66113 .22266-.16602 .11133-.08301 .01367-.01025 .00293-.00244c.84082-5.8877-1.875,13.175 1.8848-13.2l-.00879-.00439-.03418-.01709-.06934-.03418-.55371-.27051c-1.4707-.67188-2.9668-1.4966-4.3936-1.8916-2.8838-1.0254-5.7402-1.6792-8.6572-2.2837-1.3633.03223-2.7031.07812-3.8584-.15186-1.6533-.45166-3.498-1.627-5.0049-2.3306-.60742,2.2178-4.6982,1.9526-4.7422,4.4126-.97461-.40186-2.4394-1.021-2.7285-.41895-.85938,1.7783-2.3506,3.6709-5.2686,3.9741-1.0762-.07617-2.4111-1.3022-2.8848-1.0215-.7373.44434.93066,1.6953.18945,2.1382 7.2012,2.8491 14.57,4.7012 20.869,8.1011 .71582.04102 1.9863.58984 3.6182,1.3965 .45117.19824.70215.4248 1.0928.65186l.55762.35107 .28809.17969 .14648.09082 .07324.0459 .03711.02295 .01855.01123 .00977.00586 .00488.00293c-.47363,3.3423 4.1475-29.096 2.1875-15.363-.99316.46582-2.0391,1.0684-3.123,1.4575-4.3144,1.8823-8.9609,2.2383-10.834,1.9727l-.34082.03662c-2.0508-.14404-4.5352-.29053-6.5508.16846-.95117.3501-1.9854.79004-3.0508,1.1348l.85254,1.416c-.91992-.31299-1.831-.60254-2.3125-.32227-2.293.2876-1.5635,1.7398-1.1934,3.5127 .39941.84375-.7373,1.6113.0332,2.5571-.69922-.22021-1.0312-.37598-1.7197-.62842-.2832.60693 2.2432.36816 1.4541,1.2314-.61523-.4292-1.4814-.31592-2.1807-.57178-.03906.9248 2.3486,1.1157 2.0039,1.8931-.47559.10303-1.6592-1.7686-2.1367-.77539-.09668.19824.61328.46436.96875.59863-2.3086-.3877-3.917.104-2.2383,1.958-.73047-.26367-1.5606-1.0913-2.3672-1.2231l-.00098.01855c.36133.17285.93066.625 1.2744.76758l-1.2637-.53076 .06348.50781c.27441.24463.56152.46533.89258.60596l-.84668-.35596c.08984.41162.2207.82373.38574,1.2275 .77832,1.0562 1.5283,2.3467 2.1084,2.5723 4.61,2.042 9.95,3.411 15.44,3.589z"
       fill="#d6eef4"
       id="path4627" />
  </g>
  <path
     d="m14.768,170.57c-2.6904-32.139-2.9917-69.885-.90625-113.23 20.626-43.881 20.928-6.134.906,113.23z"
     fill="#d8fcfd"
     fill-rule="evenodd"
     opacity=".5"
     id="path4631" />
  <g
     opacity=".65"
     id="g4635">
    <path
       d="m122.46,46.85c-5.0215-15.644-91.761-24.94-108.11-25.689-8.6982-.39746-7.396,97.788-7.3726,106.81 .04297,16.795-.22363,33.861 1.7075,50.584 1.8882,16.355 29.484,14.197 43.177,16.346 6.2495.98242 50.115,12.594 42.575-2.0371-8.0825-15.686-16.54-12.352-31.928-11.307-3.7817.25586-28.068-8.1133-27.929-10.965 .04395-.91406 15.562-7.5566 17.037-8.7617 8.3506-6.8242 8.73-15.994 7.6821-25.547-2.1728-19.814 2.9883-56.215 8.082-71.208 4.2139-12.404 18.42,32.799 18.42,32.799s-10.236,28.687-4.4356,47.74c1.9302,6.3379 6.4067,34.35 17.832,32.287 14.877-2.6856 16.075-17.037 17.043-27.783 1.7275-19.199 3.3076-38.414 4.6602-57.639 .93-13.251 5.74-32.581 1.56-45.621"
       fill="#d8fcfd"
       fill-rule="evenodd"
       id="path4633" />
  </g>
  <g
     opacity=".45"
     id="g4639">
    <path
       d="m95.317,75.173c.40283-.03271.76172-.44336 1.0127.10254 .60693,1.7441-.60889,3.3223-.06934,5.0737l.66113.06787c-.15039,1.415-.37988,2.8901-.55127,4.3862 .26123,2.71.61523,5.4033.979,8.0889 .23535-.08203.45264-.12695.55029.13867 .21631,1.1152.04541,2.6826.0376,4.2969l.14014.70703c.14746.17871.37891.21973.52051.24512 .00195.73047-.02539,1.3828-.0874,1.9844 1.4272,7.8931 2.7861,15.993 3.5361,24.889 .4082,1.8984.81543,3.8223.90283,5.6523-.06982,2.6836-1.0601,5.9766-1.5205,8.5195 2.3599-.01562 2.1172,6.5293 4.6572,5.7988-.36475,1.7656-1.1763,4.3633-.6084,4.668 1.71.92188 3.6904,2.8828 3.1055,8.1953-.47607,2.0312-2.3794,4.6621-2.2783,5.4863 .15332,1.3106 2.2422-1.9434 2.4028-.64258 6.5772-14.461 7.4746-28.695 8.3906-43.012-.13867-5.0566-1.3281-37.547-2.4062-45.857l-.11719-.75244c-.37305-4.5522-1.3125-10.054-2.8447-13.749-.8584-1.6728-1.7598-3.3306-2.772-4.9849-.19287.89941-.42236,1.729-.68604,2.4526-.25195-1.7964-.62549-3.6064-1.1602-4.206-1.7544-3.5972-2.4258-1.1611-3.667.5874-.46045,1.166-1.7769.00635-2.1333,1.7368-.20508-1.1484-.30762-1.7246-.51123-2.8799-.6665.00928 1.0566,3.4565-.15479,2.8799 .00977-1.145-.6123-2.2998-.84668-3.4297-.75049.57812.49756,4.0029-.38379,3.9995-.32373-.56006.50293-3.4307-.60596-3.4106-.21826.00391-.01904,1.1406.08154,1.7075-1.0601-3.415-2.6045-4.9058-2.9717-1.6186-.23047-1.0508-.15576-2.6519-.57715-3.7266l-.01465.01318c.10352.56494.12354,1.5776.23682,2.0908l-.41406-1.9023-.35596.44922c-.0127.50293 0,.99854.10596,1.4893l-.27295-1.2539-.72021,1.313c-.30908,1.6357-.96582,3.2349-.8418,4.0718 .891,6.602 1.572,13.486 2.248,20.314z"
       fill="#ddfcfd"
       id="path4637" />
  </g>
</svg>
